<svg width="32" height="32" viewBox="0 0 32 32" fill="none" xmlns="http://www.w3.org/2000/svg">
  <circle cx="16" cy="16" r="14" fill="#0D9488"/>
  <path d="M22.5 13.5C22.5 10.4624 20.0376 8 17 8C15.1946 8 13.5664 8.90149 12.5841 10.2509C12.2452 10.0892 11.8685 10 11.4737 10C9.55378 10 8 11.5538 8 13.4737C8 15.3936 9.55378 16.9474 11.4737 16.9474H12.1842C12.0642 17.2602 12 17.5935 12 17.9394C12 19.6273 13.3727 21 15.0606 21H16.4118C18.9412 21 21 18.9412 21 16.4118V15.9444C21.9311 15.7193 22.5 14.8498 22.5 13.8421V13.5Z" fill="white"/>
</svg>